# xmcd
#
# Track frame offsets:
# 150
# 12440
# 18907
# 45825
# 58487
# 63390
# 66077
# 77822
# 96072
# 108525
# 116992
# 119987
# 138895
# 142030
# 145665
# 148575
# 152150
# 154637
# 168682
# 171135
# 173182
# 175430
# 177162
# 178447
# 183132
# 187370
#
# Disc length: 2665 seconds
#
#
# Revision: 3
# Processed by: cddbd v1.5.2PL0 Copyright (c) Steve Scherf et al.
# Submitted via: FreeRIP 2.944 
#
DISCID=880a671a
DTITLE=Monges do Mosteiro de São Bento de São Paulo - Canto Gregoriano [Natal]
DYEAR=1900
DGENRE=New Age
TTITLE0=Sinos - Noite de Natal
TTITLE1=Introito - Dominus Dixit
TTITLE2=Gradual - Tecum Principium
TTITLE3=Aleluia - Dominux Dixit Ad Me
TTITLE4=Ofertório - Laetentur Caeli
TTITLE5=In Splendoribus Sanctorum
TTITLE6=Introito - Puer Natus
TTITLE7=Gradual - Viderunt
TTITLE8=Aleluia - Dies Sanctificatus
TTITLE9=Ofertório - Tui sunt Caeli
TTITLE10=Comunhão - Viderunt
TTITLE11=Hino: A Solis Ortus Cardine
TTITLE12=Antífona: Quem Vidistis
TTITLE13=Antífona: Genuit
TTITLE14=Antífona: Angelus
TTITLE15=Antífona: Facta Est
TTITLE16=Antífona: Parvulus
TTITLE17=Hino: Christe Redemptor Omnium
TTITLE18=Antífona: Tecum Principium
TTITLE19=Antífona: Redemptionem
TTITLE20=Antífona: Exortum Est
TTITLE21=Antífona: Apud Dominum
TTITLE22=Antífona: De Fructu
TTITLE23=Magnificat: Hodie Christus Natus Est
TTITLE24=Antífona: Ecce Nomem Domini
TTITLE25=Sinos - Vésperas
EXTD=Cânticos Natalinos
EXTT0=
EXTT1=
EXTT2=
EXTT3=
EXTT4=
EXTT5=
EXTT6=
EXTT7=
EXTT8=
EXTT9=
EXTT10=
EXTT11=
EXTT12=
EXTT13=
EXTT14=
EXTT15=
EXTT16=
EXTT17=
EXTT18=
EXTT19=
EXTT20=
EXTT21=
EXTT22=
EXTT23=
EXTT24=
EXTT25=
PLAYORDER=
